<svg width="61" height="61" viewBox="0 0 61 61" fill="none" xmlns="http://www.w3.org/2000/svg">
<g id="mdi:brush">
<path id="Vector" d="M52.6366 11.7679L49.2308 8.36209C48.2904 7.37084 46.6383 7.37084 45.647 8.36209L22.8737 31.1354L29.8633 38.125L52.6366 15.3517C53.6279 14.3604 53.6279 12.7083 52.6366 11.7679ZM17.7904 35.5833C15.7681 35.5833 13.8286 36.3867 12.3987 37.8167C10.9687 39.2466 10.1654 41.1861 10.1654 43.2083C10.1654 46.5379 7.21703 48.2917 5.08203 48.2917C7.42036 51.3925 11.4362 53.375 15.2487 53.375C17.9451 53.375 20.531 52.3039 22.4376 50.3973C24.3442 48.4906 25.4154 45.9047 25.4154 43.2083C25.4154 41.1861 24.612 39.2466 23.1821 37.8167C21.7521 36.3867 19.8126 35.5833 17.7904 35.5833Z" fill="#2091F9"/>
</g>
</svg>
